<?xml version="1.0" encoding="utf-8"?>
<!-- Generator: Adobe Illustrator 26.1.0, SVG Export Plug-In . SVG Version: 6.00 Build 0)  -->
<svg version="1.1" id="Layer_1" xmlns="http://www.w3.org/2000/svg" xmlns:xlink="http://www.w3.org/1999/xlink" x="0px" y="0px"
	 viewBox="0 0 81.9 71.5" style="enable-background:new 0 0 81.9 71.5;" xml:space="preserve">
<style type="text/css">
	.st0{fill:#AA9A33;}
	.st1{fill:url(#SVGID_1_);}
	.st2{fill:none;stroke:#00A9A3;stroke-width:2.3278;stroke-miterlimit:10;}
	.st3{fill:#00A9A3;stroke:#006A72;stroke-width:2.3278;stroke-miterlimit:10;}
</style>
<path class="st0" d="M4,63.1c0,1.7,2.7,3,6,3c3.3,0,6-1.4,6-3V49.9H4.1L4,63.1z"/>
<path class="st0" d="M77.6,9.2c0-1.7-2.7-3-6-3c-3.3,0-6,1.4-6,3l0,13.2l11.9,0L77.6,9.2z"/>
<linearGradient id="SVGID_1_" gradientUnits="userSpaceOnUse" x1="4.0057" y1="36.1278" x2="77.5993" y2="36.1278">
	<stop  offset="0" style="stop-color:#FBC43B"/>
	<stop  offset="0.5025" style="stop-color:#FFE039"/>
	<stop  offset="1" style="stop-color:#FBC43B"/>
</linearGradient>
<path class="st1" d="M77.6,62.9c0,0-5.4,2.6-13.4,2.6c-18.9,0-30.4-4.4-50.4-4.4c-7.3,0-9.8,1.9-9.8,1.9V9c0,0,3.3-2.3,8.1-2.3
	c17.1,0,39.8,4.4,57.2,4.4c5.9,0,8.3-2.2,8.3-2.2V62.9z"/>
<polygon class="st2" points="23.4,49.9 41,20.3 60.4,49.9 "/>
<circle class="st3" cx="41" cy="20.3" r="4.7"/>
<circle class="st3" cx="23.4" cy="49.9" r="4.7"/>
<circle class="st3" cx="60.4" cy="49.9" r="4.7"/>
</svg>
